<svg width="813" height="213" viewBox="0 0 813 213" fill="none" xmlns="http://www.w3.org/2000/svg">
<path d="M100.214 2.39999C101.014 0.799987 102.514 -1.43051e-05 104.714 -1.43051e-05H146.414C147.414 -1.43051e-05 148.214 0.399987 148.814 1.19999C149.614 1.79999 150.014 2.59999 150.014 3.59999V206.4C150.014 207.4 149.614 208.3 148.814 209.1C148.214 209.7 147.414 210 146.414 210H103.814C102.814 210 101.914 209.7 101.114 209.1C100.514 208.3 100.214 207.4 100.214 206.4V77.7C100.214 76.9 100.014 76.5 99.6141 76.5C99.2141 76.3 98.8141 76.5 98.4141 77.1L77.4141 113.7C76.6141 115.3 76.0141 116.1 75.6141 116.1C75.2141 116.1 74.5141 115.3 73.5141 113.7L52.5141 77.1C52.1141 76.5 51.7141 76.2 51.3141 76.2C50.9141 76.2 50.7141 76.6 50.7141 77.4V206.4C50.7141 207.4 50.3141 208.3 49.5141 209.1C48.9141 209.7 48.1141 210 47.1141 210H4.51406C3.51406 210 2.61406 209.7 1.81406 209.1C1.21406 208.3 0.914063 207.4 0.914063 206.4V3.59999C0.914063 2.59999 1.21406 1.79999 1.81406 1.19999C2.61406 0.399987 3.51406 -1.43051e-05 4.51406 -1.43051e-05H46.5141C48.5141 -1.43051e-05 50.0141 0.799987 51.0141 2.39999L75.0141 45.9C75.6141 46.7 76.2141 46.7 76.8141 45.9L100.214 2.39999ZM173.299 210C172.299 210 171.399 209.7 170.599 209.1C169.999 208.3 169.699 207.4 169.699 206.4V3.59999C169.699 2.59999 169.999 1.79999 170.599 1.19999C171.399 0.399987 172.299 -1.43051e-05 173.299 -1.43051e-05H215.899C216.899 -1.43051e-05 217.699 0.399987 218.299 1.19999C219.099 1.79999 219.499 2.59999 219.499 3.59999V206.4C219.499 207.4 219.099 208.3 218.299 209.1C217.699 209.7 216.899 210 215.899 210H173.299ZM243.905 210C242.905 210 242.005 209.7 241.205 209.1C240.605 208.3 240.305 207.4 240.305 206.4V3.59999C240.305 2.59999 240.605 1.79999 241.205 1.19999C242.005 0.399987 242.905 -1.43051e-05 243.905 -1.43051e-05H286.505C287.505 -1.43051e-05 288.305 0.399987 288.905 1.19999C289.705 1.79999 290.105 2.59999 290.105 3.59999V71.4C290.105 72.2 290.305 72.6 290.705 72.6C291.105 72.6 291.505 72.3 291.905 71.7L323.405 2.69999C324.205 0.899986 325.605 -1.43051e-05 327.605 -1.43051e-05H372.605C374.005 -1.43051e-05 374.905 0.399987 375.305 1.19999C375.905 1.79999 375.905 2.79999 375.305 4.19999L331.805 92.4C331.605 93.2 331.505 93.8 331.505 94.2L377.105 205.8C377.305 206.2 377.405 206.8 377.405 207.6C377.405 209.2 376.405 210 374.405 210H329.105C326.905 210 325.505 209.1 324.905 207.3L297.905 137.1C297.705 136.5 297.405 136.2 297.005 136.2C296.605 136.2 296.205 136.5 295.805 137.1L290.405 147.9C290.205 148.3 290.105 148.9 290.105 149.7V206.4C290.105 207.4 289.705 208.3 288.905 209.1C288.305 209.7 287.505 210 286.505 210H243.905ZM466.17 3.59999C466.17 2.59999 466.47 1.79999 467.07 1.19999C467.87 0.399987 468.77 -1.43051e-05 469.77 -1.43051e-05H512.37C513.37 -1.43051e-05 514.17 0.399987 514.77 1.19999C515.57 1.79999 515.97 2.59999 515.97 3.59999V206.4C515.97 207.4 515.57 208.3 514.77 209.1C514.17 209.7 513.37 210 512.37 210H469.77C468.77 210 467.87 209.7 467.07 209.1C466.47 208.3 466.17 207.4 466.17 206.4V127.8C466.17 126.8 465.67 126.3 464.67 126.3H443.07C442.07 126.3 441.57 126.8 441.57 127.8V206.4C441.57 207.4 441.17 208.3 440.37 209.1C439.77 209.7 438.97 210 437.97 210H395.37C394.37 210 393.47 209.7 392.67 209.1C392.07 208.3 391.77 207.4 391.77 206.4V3.59999C391.77 2.59999 392.07 1.79999 392.67 1.19999C393.47 0.399987 394.37 -1.43051e-05 395.37 -1.43051e-05H437.97C438.97 -1.43051e-05 439.77 0.399987 440.37 1.19999C441.17 1.79999 441.57 2.59999 441.57 3.59999V81.9C441.57 82.9 442.07 83.4 443.07 83.4H464.67C465.67 83.4 466.17 82.9 466.17 81.9V3.59999ZM598.289 212.4C585.889 212.4 574.989 209.8 565.589 204.6C556.189 199.2 548.889 191.7 543.689 182.1C538.489 172.5 535.889 161.4 535.889 148.8V3.59999C535.889 2.59999 536.189 1.79999 536.789 1.19999C537.589 0.399987 538.489 -1.43051e-05 539.489 -1.43051e-05H582.089C583.089 -1.43051e-05 583.889 0.399987 584.489 1.19999C585.289 1.79999 585.689 2.59999 585.689 3.59999V153.6C585.689 158.4 586.789 162.3 588.989 165.3C591.389 168.3 594.489 169.8 598.289 169.8C602.089 169.8 605.089 168.3 607.289 165.3C609.689 162.3 610.889 158.4 610.889 153.6V3.59999C610.889 2.59999 611.189 1.79999 611.789 1.19999C612.589 0.399987 613.489 -1.43051e-05 614.489 -1.43051e-05H657.089C658.089 -1.43051e-05 658.889 0.399987 659.489 1.19999C660.289 1.79999 660.689 2.59999 660.689 3.59999V148.8C660.689 161.4 658.089 172.5 652.889 182.1C647.689 191.7 640.389 199.2 630.989 204.6C621.589 209.8 610.689 212.4 598.289 212.4ZM722.63 209.4C721.63 209.4 720.73 209.1 719.93 208.5C719.33 207.7 719.03 206.8 719.03 205.8V132L718.73 130.2L676.73 4.19999C676.53 3.79999 676.43 3.29999 676.43 2.69999C676.43 0.899986 677.43 -1.43051e-05 679.43 -1.43051e-05H724.43C726.43 -1.43051e-05 727.73 1.09999 728.33 3.3L743.33 69.3C743.53 70.1 743.83 70.5 744.23 70.5C744.63 70.5 744.93 70.1 745.13 69.3L760.13 3.3C760.73 1.09999 762.03 -1.43051e-05 764.03 -1.43051e-05H809.03C810.23 -1.43051e-05 811.03 0.399987 811.43 1.19999C812.03 1.79999 812.13 2.79999 811.73 4.19999L769.13 130.2L768.83 132V205.8C768.83 206.8 768.43 207.7 767.63 208.5C767.03 209.1 766.23 209.4 765.23 209.4H722.63Z" fill="white"/>
</svg>
